# xmcd
#
# Track frame offsets:
#	150
#	18700
#	35955
#	62796
#	83073
#	94997
#	117867
#	142268
#	161502
#	178362
#	189481
#	210776
#	238817
#	256140
#	278220
#	297880
#
# Disc length: 4202 seconds
#
# Revision: 1
# Processed by: cddbd v1.5.2PL0 Copyright (c) Steve Scherf et al.
# Submitted via: audiograbber 1.83.01
#
DISCID=f2106810
DTITLE=Dixie Chicks - An Evening With The Dixie Chicks
DYEAR=2003
DGENRE=Country
TTITLE0=Long Time Gone
TTITLE1=Landslide
TTITLE2=Travelin' Soldier
TTITLE3=Truth No. 2
TTITLE4=White Trash Wedding
TTITLE5=A Home
TTITLE6=More Love
TTITLE7=I Believe In Love
TTITLE8=Tortured, Tangled Hearts
TTITLE9=Lil' Jack Slade
TTITLE10=Godspeed (Sweet Dreams)
TTITLE11=Top Of The World
TTITLE12=Wide Open Spaces
TTITLE13=Cowboy Take Me Away
TTITLE14=Goodbye Earl
TTITLE15=Sin Wagon
EXTD=
EXTT0=
EXTT1=
EXTT2=
EXTT3=
EXTT4=
EXTT5=
EXTT6=
EXTT7=
EXTT8=
EXTT9=
EXTT10=
EXTT11=
EXTT12=
EXTT13=
EXTT14=
EXTT15=
PLAYORDER=
